# xmcd
#
# Track frame offsets:
#	150
#	18785
#	36002
#	54380
#	75802
#	96067
#	112812
#	129220
#	151532
#	173510
#	192877
#	209882
#	232190
#	250135
#
# Disc length: 3545 seconds
#
# Revision: 1
# Processed by: cddbd v1.5.2PL0 Copyright (c) Steve Scherf et al.
# Submitted via: CDRider 2.1
#
DISCID=9b0dd70e
DTITLE=Various Artist - Can You Hear the Future in the Music, Disc 2
DYEAR=1900
DGENRE=R&B
TTITLE0=All for the Money
TTITLE1=When Can I See You
TTITLE2=Romantic Call
TTITLE3=Party With Me
TTITLE4=Don't Stress Me
TTITLE5=Tell Me
TTITLE6=Huh What?
TTITLE7=I Need Your Love
TTITLE8=Party
TTITLE9=Driving Me Crazy
TTITLE10=The Glock
TTITLE11=Moonlighting
TTITLE12=Respect
TTITLE13=I Only Have Eyes for You
EXTD=
EXTT0=
EXTT1=
EXTT2=
EXTT3=
EXTT4=
EXTT5=
EXTT6=
EXTT7=
EXTT8=
EXTT9=
EXTT10=
EXTT11=
EXTT12=
EXTT13=
PLAYORDER=
